# AST/ASF file generated using VICON BodyLanguage
# -----------------------------------------------
:version 1.10
:name VICON
:units
  mass 1.0
  length 0.45
  angle deg
:documentation
   .ast/.asf automatically generated from VICON data using
   VICON BodyBuilder and BodyLanguage model FoxedUp or BRILLIANT.MOD
:root
   order TX TY TZ RX RY RZ
   axis XYZ
   position 0 0 0  
   orientation 0 -0 0 
:bonedata
  begin
     id 1 
     name lhipjoint
     direction 0.515797 -0.759363 0.396637 
     length 2.47888 
     axis 0 -0 0  XYZ
  end
  begin
     id 2 
     name lfemur
     direction 0.34202 -0.939693 0  
     length 6.81885  
     axis 0 -0 20  XYZ
    dof rx ry rz
    limits (-160.0 20.0)
           (-70.0 70.0)
           (-60.0 70.0)
  end
  begin
     id 3 
     name ltibia
     direction 0.342037 -0.939687 0   
     length 7.89258   
     axis 0 -0 20   XYZ
    dof rx
    limits (-10.0 170.0)
  end
  begin
     id 4 
     name lfoot
     direction 0.173497 -0.476678 0.861787   
     length 2.51543   
     axis -90 -1.13533e-015 20   XYZ
    dof rx rz
    limits (-45.0 90.0)
           (-70.0 20.0)
  end
  begin
     id 5 
     name ltoes
     direction 1.53564e-011 -4.21897e-011 1   
     length 1.21388   
     axis -90 -1.13533e-015 20   XYZ
    dof rx
    limits (-90.0 20.0)
  end
  begin
     id 6 
     name rhipjoint
     direction -0.489454 -0.772941 0.403729   
     length 2.43534  
     axis 0 -0 0  XYZ 
  end
  begin
     id 7 
     name rfemur
     direction -0.34202 -0.939693 0   
     length 7.10357   
     axis 0 -0 -20   XYZ
    dof rx ry rz
    limits (-160.0 20.0)
           (-70.0 70.0)
           (-70.0 60.0)
  end
  begin
     id 8 
     name rtibia
     direction -0.34202 -0.939693 0   
     length 9.16127   
     axis 0 -0 -20   XYZ
    dof rx
    limits (-10.0 170.0)
 end
 begin
     id 9 
     name rfoot
     direction -0.270974 -0.748671 0.605033   
     length 1.74894  
     axis -90 1.13533e-015 -20   XYZ
    dof rx rz
    limits (-45.0 90.0)
           (-20.0 70.0)
  end
  begin
     id 10 
     name rtoes
     direction -1.53557e-011 -4.21759e-011 1   
     length 0.787585   
     axis -90 1.13533e-015 -20   XYZ
    dof rx
    limits (-90.0 20.0)
  end
  begin
     id 11 
     name lowerback
     direction -0.0140249 0.999561 0.0260968   
     length 2.16963   
     axis 0 -0 0   XYZ
    dof rx ry rz
    limits (-20.0 45.0)
           (-30.0 30.0)
           (-30.0 30.0)
  end
  begin
     id 12 
     name upperback
     direction 0.00860018 0.999959 -0.002711   
     length 2.1726   
     axis 0 -0 0   XYZ
    dof rx ry rz
    limits (-20.0 45.0)
           (-30.0 30.0)
           (-30.0 30.0)
  end
  begin
     id 13 
     name thorax
     direction 0.015211 0.999782 -0.0143191   
     length 2.17061   
     axis 0 -0 0   XYZ
    dof rx ry rz
    limits (-20.0 45.0)
           (-30.0 30.0)
           (-30.0 30.0)
  end
  begin
     id 14 
     name lowerneck
     direction -0.0140143 0.999447 0.030145   
     length 2.26749   
     axis 0 -0 0   XYZ
    dof rx ry rz
    limits (-20.0 45.0)
           (-30.0 30.0)
           (-30.0 30.0)
  end
  begin
     id 15 
     name upperneck
     direction 0.118062 0.961438 -0.248392   
     length 2.22728   
     axis 0 -0 0   XYZ
    dof rx ry rz
    limits (-20.0 45.0)
           (-30.0 30.0)
           (-30.0 30.0)
  end
  begin
     id 16
     name head
     direction 0.0431885 0.9954 -0.085514  
     length 2.28786  
     axis 0 -0 0   XYZ
    dof rx ry rz
    limits (-20.0 45.0)
           (-30.0 30.0)
           (-30.0 30.0)
  end
  begin
     id 17 
     name lclavicle
     direction 0.912126 0.409548 0.0172323  
     length 4.31571  
     axis 0 -0 0   XYZ
    dof ry rz
    limits (-20.0 10.0)
           (0.0 20.0)
  end
  begin
     id 18 
     name lhumerus
     direction 1 -4.48977e-011 1.93091e-027   
     length 5.13658   
     axis 180 -30 -90   XYZ
    dof rx ry rz
    limits (-60.0 90.0)
           (-90.0 90.0)
           (-90.0 90.0)
  end
  begin
     id 19
     name lradius
     direction 1 -4.48916e-011 6.84018e-027   
     length 3.22473   
     axis 180 -30 -90   XYZ
    dof rx
    limits (-10.0 170.0)
  end
  begin
     id 20
     name lwrist
     direction 1 -4.48987e-011 7.01981e-027   
     length 1.61236   
     axis -4.37994e-015 90 90   XYZ
    dof ry
    limits (-180.0 0.0)
 end
  begin
     id 21 
     name lhand
     direction 1 -4.49037e-011 1.40335e-026   
     length 0.936406   
     axis -8.96029e-015 90 90   XYZ
    dof rx rz
    limits (-90.0 90.0)
           (-45.0 45.0)
  end
  begin
     id 22 
     name lfingers
     direction 1 -4.48886e-011 2.8104e-026   
     length 0.754955   
     axis -1.79203e-014 90 90   XYZ
    dof rx
    limits (0.0 90.0)
  end
  begin
     id 23
     name lthumb
     direction 0.707107 -6.34937e-011 0.707107   
     length 1.08397   
     axis -90 45 -4.48555e-014   XYZ
    dof rx rz
    limits (-45.0 45.0)
           (-45.0 45.0)
  end
  begin
     id 24 
     name rclavicle
     direction -0.947962 0.317997 0.0156638   
     length 4.86918  
     axis 0 -0 0   XYZ 
    dof ry rz
    limits (-10.0 20.0)
           (-20.0 0.0)
  end
  begin
     id 25 
     name rhumerus
     direction -1 -4.48951e-011 2.80534e-018  
     length 5.60911   
     axis 180 30 90   XYZ
    dof rx ry rz
    limits (-90.0 60.0)
           (-90.0 90.0)
           (-90.0 90.0)
  end
  begin
     id 26 
     name rradius
     direction -1 -4.4898e-011 2.11315e-027   
     length 3.38704   
     axis 180 30 90   XYZ
    dof rx
    limits (-10.0 170.0)
  end
  begin
     id 27 
     name rwrist
     direction -1 -4.48933e-011 7.02314e-027   
     length 1.69352   
     axis -4.37994e-015 -90 -90   XYZ
    dof ry
    limits (-180.0 0.0)
  end
  begin
     id 28
     name rhand
     direction -1 -4.48937e-011 1.40458e-026   
     length 0.755878   
     axis -8.96029e-015 -90 -90   XYZ
    dof rx rz
    limits (-90.0 90.0)
           (-45.0 45.0)
  end
  begin
     id 29
     name rfingers
     direction -1 -4.4901e-011 2.80737e-026   
     length 0.609409   
     axis -1.79203e-014 -90 -90   XYZ
    dof rx
    limits (0.0 90.0)
  end
  begin
     id 30
     name rthumb
     direction -0.707107 -6.34968e-011 0.707107   
     length 0.874992   
     axis -90 -45 4.48555e-014   XYZ
    dof rx rz
    limits (-45.0 45.0)
           (-45.0 45.0)
  end
:hierarchy
  begin
    root lhipjoint rhipjoint lowerback
    lhipjoint lfemur
    lfemur ltibia
    ltibia lfoot
    lfoot ltoes
    rhipjoint rfemur
    rfemur rtibia
    rtibia rfoot
    rfoot rtoes
    lowerback upperback
    upperback thorax
    thorax lowerneck lclavicle rclavicle
    lowerneck upperneck
    upperneck head
    lclavicle lhumerus
    lhumerus lradius
    lradius lwrist
    lwrist lhand lthumb
    lhand lfingers
    rclavicle rhumerus
    rhumerus rradius
    rradius rwrist
    rwrist rhand rthumb
    rhand rfingers
  end

#!OML:ASF C:\ViconDB\ViconDB\414\Spring2016\041811\Spring2016.ASF
:FULLY-SPECIFIED
:DEGREES
1
root 6.53731 17.3843 31.0945 -169.961 -4.93029 176.569
lowerback 4.7098 0.943798 -4.0481
upperback 1.25273 0.950327 -1.38061
thorax -1.39637 0.443494 0.795829
lowerneck -11.5314 -2.39637 -11.8397
upperneck 18.2172 -4.7665 15.0028
head 8.13008 -2.01598 6.5553
rclavicle -9.19379e-015 -8.64713e-015
rhumerus -51.1808 -1.88973 -92.6325
rradius 77.2914
rwrist 15.1049
rhand -36.5741 -12.9715
rfingers 7.12502
rthumb -9.66378 -42.7298
lclavicle -9.19379e-015 -8.64713e-015
lhumerus -46.7325 -13.1952 94.7894
lradius 57.77
lwrist -14.636
lhand -32.5924 11.7101
lfingers 7.12502
lthumb -5.8207 41.6102
rfemur -27.0976 -2.58755 19.414
rtibia 44.7596
rfoot -172.185 14.7452
rtoes -9.38285
lfemur -0.702456 -10.9755 -19.7687
ltibia 34.6604
lfoot -20.6791 -5.49568
ltoes -23.5948
2
root 6.53222 17.3365 31.0481 -169.89 -4.55722 176.26
lowerback 4.95187 0.944649 -4.19307
upperback 1.32497 0.909748 -1.6559
thorax -1.45383 0.415478 0.593678
lowerneck -11.7071 -2.44156 -11.8895
upperneck 18.1115 -4.72728 14.8515
head 8.1208 -1.99619 6.51188
rclavicle -1.59028e-014 3.53837e-014
rhumerus -52.1489 -1.80847 -92.8044
rradius 75.7382
rwrist 15.7915
rhand -36.6941 -13.3661
rfingers 7.12502
rthumb -9.77948 -43.119
lclavicle -1.59028e-014 3.53837e-014
lhumerus -46.2913 -13.9295 94.9643
lradius 59.9795
lwrist -14.2524
lhand -32.4759 11.8192
lfingers 7.12502
lthumb -5.70824 41.7223
rfemur -27.7275 -2.62692 19.055
rtibia 45.975
rfoot -172.239 15.1581
rtoes -9.41401
lfemur -0.265099 -11.1692 -20.3512
ltibia 34.3774
lfoot -21.1414 -5.0565
ltoes -23.8877
3
root 6.53627 17.2928 30.999 -169.689 -4.37122 176.261
lowerback 5.10471 0.924002 -4.1014
upperback 1.32172 0.868 -1.80044
thorax -1.5375 0.392611 0.394453
lowerneck -11.8115 -2.49001 -12.0144
upperneck 18.0504 -4.71218 14.7642
head 8.11939 -1.99331 6.50337
rclavicle 4.42296e-015 -2.5842e-014
rhumerus -53.2074 -1.85448 -92.9484
rradius 74.0537
rwrist 16.4675
rhand -35.9511 -12.769
rfingers 7.12502
rthumb -9.06265 -42.5543
lclavicle 4.42296e-015 -2.5842e-014
lhumerus -45.8305 -14.888 95.1865
lradius 62.09
lwrist -14.1178
lhand -32.9755 11.8341
lfingers 7.12502
lthumb -6.19051 41.7236
rfemur -28.4484 -2.56205 19.1008
rtibia 47.1198
rfoot -172.457 15.3428
rtoes -9.43032
lfemur -0.0864212 -11.3667 -20.449
ltibia 34.203
lfoot -21.7565 -4.65943
ltoes -24.5143
4
root 6.53396 17.2499 30.9436 -169.477 -4.12544 176.177
lowerback 5.24278 0.831021 -4.21631
upperback 1.32103 0.726612 -1.80404
thorax -1.61154 0.322174 0.462496
lowerneck -12.1406 -2.51405 -12.2363
upperneck 18.1251 -4.57126 14.4611
head 8.18299 -1.94119 6.45439
rclavicle 7.90169e-015 -2.98177e-015
rhumerus -54.3206 -1.46617 -92.9239
rradius 72.6761
rwrist 16.4172
rhand -35.6395 -12.1793
rfingers 7.12502
rthumb -8.76188 -41.9775
lclavicle 7.90169e-015 -2.98177e-015
lhumerus -45.278 -15.3342 95.5118
lradius 64.5542
lwrist -13.5923
lhand -32.917 12.107
lfingers 7.12502
lthumb -6.13408 41.9982
rfemur -29.2062 -2.71942 19.0401
rtibia 48.3009
rfoot -172.286 15.6711
rtoes -9.23891
lfemur 0.109636 -11.3809 -20.6412
ltibia 33.9932
lfoot -22.2269 -4.36866
ltoes -24.9349
5
root 6.54253 17.2092 30.8888 -169.456 -4.16499 176.278
lowerback 5.69256 0.703017 -4.24762
upperback 1.31209 0.532327 -1.65842
thorax -1.8659 0.230653 0.638659
lowerneck -12.3034 -2.54449 -12.6779
upperneck 18.1376 -4.45761 14.375
head 8.20847 -1.90869 6.51656
rclavicle -1.49089e-015 1.0138e-014
rhumerus -55.4327 -1.30744 -92.6666
rradius 71.2372
rwrist 17.0039
rhand -36.0409 -13.1378
rfingers 7.12502
rthumb -9.14922 -42.9193
lclavicle -1.49089e-015 1.0138e-014
lhumerus -44.7919 -15.8412 95.8847
lradius 67.0198
lwrist -13.6659
lhand -32.834 12.0341
lfingers 7.12502
lthumb -6.05396 41.9276
rfemur -29.7001 -2.99027 19.2586
rtibia 49.4819
rfoot -172.406 15.8647
rtoes -9.20888
lfemur 0.45048 -11.4722 -20.5111
ltibia 33.8012
lfoot -22.6691 -4.42348
ltoes -25.2135
6
root 6.53762 17.1632 30.8131 -169.148 -3.81598 176.136
lowerback 5.53017 0.669022 -4.27433
upperback 1.33686 0.488181 -1.77271
thorax -1.74724 0.20401 0.540743
lowerneck -12.6053 -2.55869 -12.8363
upperneck 18.1843 -4.36539 14.2591
head 8.26763 -1.86644 6.51678
rclavicle 6.80837e-015 -3.1408e-014
rhumerus -56.5028 -1.30921 -92.3749
rradius 69.82
rwrist 18.0082
rhand -36.6618 -13.4915
rfingers 7.12502
rthumb -9.74838 -43.2458
lclavicle 6.80837e-015 -3.1408e-014
lhumerus -44.1817 -16.3196 95.9544
lradius 69.5025
lwrist -13.7828
lhand -32.6603 11.5801
lfingers 7.12502
lthumb -5.88624 41.4783
rfemur -30.5538 -3.21903 19.1185
rtibia 50.7617
rfoot -172.259 16.3113
rtoes -9.36499
lfemur 0.657058 -11.4986 -20.816
ltibia 33.5866
lfoot -23.2747 -4.16479
ltoes -25.2939
7
root 6.54302 17.1153 30.7355 -168.846 -3.635 176.004
lowerback 5.49489 0.631665 -4.45989
upperback 1.27382 0.427244 -1.79044
thorax -1.79129 0.17584 0.630391
lowerneck -12.7012 -2.57078 -13.0766
upperneck 18.1436 -4.28379 14.2058
head 8.264 -1.83833 6.549
rclavicle 3.97569e-016 1.72943e-014
rhumerus -57.6807 -1.38815 -92.0147
rradius 68.4172
rwrist 18.6993
rhand -37.0452 -13.5897
rfingers 7.12502
rthumb -10.1182 -43.3264
lclavicle 3.97569e-016 1.72943e-014
lhumerus -43.4787 -16.8849 96.2683
lradius 71.7987
lwrist -14.1975
lhand -32.7995 11.6213
lfingers 7.12502
lthumb -6.02065 41.5158
rfemur -31.3925 -3.47834 19.0471
rtibia 52.1119
rfoot -172.125 16.6232
rtoes -9.02363
lfemur 0.831449 -11.4739 -20.9936
ltibia 33.4076
lfoot -23.7696 -4.1403
ltoes -25.3944
8
root 6.54402 17.067 30.6599 -168.568 -3.64891 175.977
lowerback 5.4755 0.506997 -4.40804
upperback 1.26964 0.265251 -1.79918
thorax -1.77738 0.0947955 0.60392
lowerneck -12.8733 -2.61625 -13.0641
upperneck 18.0373 -4.25283 14.0177
head 8.25315 -1.82314 6.4803
rclavicle 8.10048e-015 1.21259e-014
rhumerus -58.7523 -1.22785 -91.9144
rradius 67.1194
rwrist 19.2235
rhand -36.7945 -12.8834
rfingers 7.12502
rthumb -9.87642 -42.6317
lclavicle 8.10048e-015 1.21259e-014
lhumerus -42.7471 -17.3281 96.4288
lradius 74.2528
lwrist -14.4645
lhand -33.008 11.3759
lfingers 7.12502
lthumb -6.2219 41.2645
rfemur -32.2439 -3.90063 19.1216
rtibia 53.5491
rfoot -172.069 16.9449
rtoes -9.08977
lfemur 0.999924 -11.5272 -21.0237
ltibia 33.2145
lfoot -24.2362 -3.96054
ltoes -25.6239
